<?xml version="1.0" encoding="UTF-8"?>
<svg id="Layer_1" data-name="Layer 1" xmlns="http://www.w3.org/2000/svg" viewBox="0 0 1580.51 931.17">
  <defs>
    <style>
      .cls-1 {
        fill: #fff;
      }

      .cls-2 {
        fill: #b99df8;
      }

      .cls-3 {
        fill: #a68ee4;
      }
    </style>
  </defs>
  <path class="cls-1" d="M753.01,302.32c3.16,0,6.04,2.13,6.64,5.23.07.36.1.7.09,1.02l-4.04,40.58c-.62,6.19-5.83,10.92-12.05,10.92h-2.02c-6.71.01-12.15-5.42-12.14-12.13v-11.17c0-3.78-3.05-6.84-6.83-6.84h-236.87c-2.44,0-4.69,1.3-5.91,3.4l-.28.48c-.68,1.16-.99,2.5-.91,3.84l9.77,161.48c-.17,90.72,112.91,140.64,181.89,86.91,16.61-12.94,19.06-28.49,41.4-19.82,4.15,1.61,5.72,6.67,3.17,10.32-19.19,27.52-46.29,48.04-80.35,54.13-40.88,7.31-88.66.98-121.33-25.7-10.79-8.81-25.35-30.66-34.27-36.08-13.95-8.49-40.4-12.41-57.15-20.77-83.69-41.75-63.22-158.72,24.37-176.82,3.26-.67,5.61-3.53,5.54-6.85l-1.16-55.17c-.08-3.83,3-6.98,6.83-6.98h295.61ZM455.81,406.75c-.29-3.81-3.64-6.66-7.45-6.3-22.24,2.08-42.44,22.12-49.4,42.59-15.22,44.7,17.59,78.13,56.99,90.33,4.6,1.42,9.19-2.25,8.83-7.05l-8.96-119.57Z"/>
  <path class="cls-2" d="M800.39,475.08c6.78-10.62,23.27-4.11,20.92,8.27-13.92,73.33-123.64,96.69-161.49,23.54-42.13-81.42,50.43-166.69,125.33-114.08,16.35,11.48,27.35,21.38,10.66,30.91-4.57,2.61-10.31,1.6-13.95-2.2-42.01-43.88-118.39-8.29-106.91,55.53,8.88,49.33,73.11,66.37,107.04,30.35,8.47-8.99,11.72-21.87,18.4-32.32Z"/>
  <path class="cls-2" d="M888.13,475.08c-6.78-10.62-23.27-4.11-20.92,8.27,13.92,73.33,123.64,96.69,161.49,23.54,42.13-81.42-50.43-166.69-125.33-114.08-16.35,11.48-27.35,21.38-10.66,30.91,4.57,2.61,10.31,1.6,13.95-2.2,42.01-43.88,118.39-8.29,106.91,55.53-8.88,49.33-73.11,66.37-107.04,30.35-8.47-8.99-11.72-21.87-18.4-32.32Z"/>
  <path class="cls-3" d="M895.16,445.86c1.25,9.61-9.42,16.29-17.74,11.33-10.2-6.08-20.13-11.92-33.54-11.92s-22.34,5.27-31.87,11.3c-7.01,4.44-16.28.45-17.87-7.69h0c-.86-4.41.84-8.97,4.45-11.65,23.57-17.54,51.66-20.9,79.34-8.2,11.81,5.42,16.32,9.91,17.22,16.82Z"/>
  <path class="cls-2" d="M301.81,472.3c-1.72-3.51-1.73-7.55-.03-11.07l68.34-141.61c3.82-7.92.49-17.48-7.44-21.3-3.84-1.85-8.17-2.1-12.19-.69-4.02,1.4-7.26,4.29-9.11,8.13l-74.38,154.14c-2.14,4.44-2.13,9.53.04,13.96l74.31,151.66c2.77,5.65,8.45,8.93,14.35,8.93,2.35,0,4.74-.52,6.99-1.63,7.9-3.87,11.18-13.45,7.31-21.35l-68.19-139.17Z"/>
  <path class="cls-2" d="M1278.7,472.3c1.72-3.51,1.73-7.55.03-11.07l-68.34-141.61c-3.82-7.92-.49-17.48,7.44-21.3,3.84-1.85,8.17-2.1,12.19-.69,4.02,1.4,7.26,4.29,9.11,8.13l74.38,154.14c2.14,4.44,2.13,9.53-.04,13.96l-74.31,151.66c-2.77,5.65-8.45,8.93-14.35,8.93-2.35,0-4.74-.52-6.99-1.63-7.9-3.87-11.18-13.45-7.31-21.35l68.19-139.17Z"/>
  <path class="cls-1" d="M1165.57,298.08c-7.66-2.7-16.06,1.31-18.76,8.97l-108.64,307.63c-2.71,7.66,1.31,16.06,8.97,18.76,1.62.57,3.27.84,4.9.84,6.06,0,11.74-3.77,13.87-9.81l108.64-307.63c2.71-7.66-1.31-16.06-8.97-18.77Z"/>
</svg>